<?xml version="1.0" encoding="UTF-8" standalone="no"?>
<!DOCTYPE svg PUBLIC "-//W3C//DTD SVG 1.1//EN" "http://www.w3.org/Graphics/SVG/1.1/DTD/svg11.dtd">
<svg version="1.1" xmlns="http://www.w3.org/2000/svg" xmlns:xlink="http://www.w3.org/1999/xlink" preserveAspectRatio="xMidYMid meet" viewBox="0 0 640 640" width="640" height="640"><defs><path d="M623.52 221.78C596.15 217.98 580.94 215.87 577.9 215.45C568.4 192.63 556.36 171.72 541.78 152.08C543.49 147.77 557.18 113.3 558.89 108.99C537.98 85.54 513.9 65.27 487.29 48.16C483.36 50.63 451.93 70.4 448 72.87C427.09 61.47 404.28 53.23 380.2 48.16C378.8 43.72 367.65 8.24 366.26 3.8C351.05 1.27 335.21 0.63 319.37 0.63C303.52 0.63 287.68 1.9 272.48 3.8C271.08 8.24 259.93 43.72 258.53 48.16C234.46 53.23 211.64 62.1 190.73 72.87C186.87 70.4 155.94 50.63 152.08 48.16C125.47 64.63 101.39 85.54 80.48 108.99C82.19 113.3 95.87 147.77 97.58 152.08C83.01 171.09 70.97 192.63 61.47 215.45C56.9 216.08 20.4 221.15 15.84 221.78C6.34 250.93 0.63 281.98 0 314.3C4.06 316.45 36.5 333.69 40.55 335.84C41.82 360.55 45.62 384.63 53.23 407.45C50.12 410.87 25.28 438.24 22.18 441.66C33.58 471.45 49.43 498.69 69.07 523.41C73.57 522.46 109.56 514.85 114.06 513.9C130.53 531.64 148.91 547.49 169.19 560.79C169 565.42 167.48 602.42 167.29 607.05C194.53 621.62 223.68 633.03 254.73 639.37C257.58 635.69 280.4 606.29 283.25 602.61C295.29 603.88 307.33 605.15 319.37 605.15C331.41 605.15 343.45 604.51 355.49 602.61C355.17 600.27 352.63 581.51 352.32 579.17C347.88 579.8 342.81 580.44 338.38 580.44C332.04 581.07 325.7 581.07 319.37 581.07C313.03 581.07 306.69 581.07 300.36 580.44C252.2 576.63 207.21 559.52 169.82 532.28C159.68 524.67 149.54 516.44 140.67 507.56C107.72 474.61 83.01 433.43 70.97 386.53C67.8 374.5 65.9 361.19 64.63 348.51C64 340.28 63.37 331.41 63.37 322.53C63.37 282.61 72.24 244.59 88.71 210.38C94.42 198.97 100.75 187.56 107.72 176.79C134.34 137.5 171.09 106.46 214.18 86.81C225.58 81.74 237.62 77.31 250.3 73.5C272.48 67.17 295.92 64 319.37 64C343.45 64 366.89 67.17 388.44 73.5C401.11 77.31 413.15 81.74 424.55 86.81C467.64 106.46 504.4 137.5 531.01 176.79C537.98 187.56 544.32 198.34 550.02 210.38C566.5 244.59 575.37 282.61 575.37 322.53C575.37 331.41 574.73 339.64 574.1 348.51C572.83 361.82 570.3 374.5 567.76 386.53C566.5 390.97 565.23 395.41 563.96 399.84C566.18 400.54 583.92 406.11 586.14 406.81C593.11 384 597.54 359.92 598.81 335.21C602.87 333.05 635.31 315.82 639.37 313.66C638.73 281.98 633.03 250.93 623.52 221.78" id="c1DIrE6JoS"></path><path d="M393.18 196.61L395.83 196.81L398.45 197.11L401.05 197.48L403.63 197.93L406.17 198.46L408.68 199.07L411.16 199.75L413.61 200.5L416.03 201.33L418.41 202.24L420.75 203.21L423.06 204.25L425.33 205.36L427.56 206.53L429.74 207.78L431.89 209.08L433.98 210.45L436.04 211.88L438.05 213.37L440.01 214.92L441.92 216.53L443.78 218.2L445.59 219.92L447.35 221.7L449.05 223.52L450.7 225.4L452.3 227.34L453.83 229.32L455.31 231.35L456.72 233.42L458.08 235.54L459.37 237.71L460.6 239.92L461.76 242.17L462.86 244.46L463.89 246.79L464.85 249.16L465.74 251.56L465.98 252.23L466.2 252.9L466.42 253.56L466.64 254.23L466.84 254.89L467.04 255.56L467.23 256.23L467.42 256.89L467.6 257.56L467.77 258.23L467.94 258.9L468.1 259.57L468.25 260.24L468.4 260.91L468.54 261.58L468.67 262.25L468.8 262.92L468.92 263.6L469.04 264.27L469.15 264.95L469.25 265.63L469.35 266.31L469.44 266.99L469.53 267.67L469.61 268.35L469.69 269.04L469.75 269.72L469.82 270.41L469.88 271.1L469.93 271.79L469.98 272.49L470.02 273.18L470.06 273.88L470.09 274.58L470.12 275.28L470.14 275.98L470.16 276.68L470.17 277.39L470.18 278.1L470.18 278.81L470.17 279.52L470.16 280.24L470.15 280.95L470.12 281.66L470.09 282.37L470.05 283.08L470.01 283.8L469.96 284.5L469.9 285.21L469.84 285.92L469.77 286.63L469.7 287.33L469.62 288.04L469.53 288.74L469.44 289.44L469.35 290.14L469.25 290.83L469.14 291.53L469.03 292.22L468.91 292.91L468.79 293.6L468.66 294.28L468.53 294.97L468.4 295.65L468.26 296.32L468.12 297L467.97 297.67L467.82 298.34L467.66 299L467.5 299.66L467.34 300.32L467.18 300.97L467.01 301.63L466.84 302.27L466.66 302.91L466.48 303.55L466.3 304.19L466.12 304.81L465.93 305.44L465.74 306.06L464.9 308.37L463.99 310.65L463 312.9L461.95 315.11L460.84 317.29L459.66 319.43L458.42 321.53L457.11 323.59L455.74 325.62L454.32 327.59L452.83 329.53L451.29 331.42L449.69 333.27L448.04 335.06L446.34 336.81L444.58 338.51L442.78 340.16L440.92 341.76L439.02 343.3L437.07 344.79L435.07 346.23L433.04 347.6L430.96 348.92L428.83 350.18L426.67 351.38L424.47 352.51L422.23 353.58L419.96 354.59L417.65 355.53L415.31 356.41L412.93 357.21L410.53 357.95L408.09 358.61L405.63 359.21L403.14 359.73L400.63 360.17L398.09 360.55L395.52 360.84L392.94 361.05L390.34 361.19L494.26 525.94L428.99 525.94L325.7 361.19L270.57 361.19L270.57 470.81L215.45 470.81L215.45 196.44L387.8 196.44L390.5 196.48L393.18 196.61ZM270.57 306.69L387.8 306.69L388.94 306.67L390.06 306.6L391.18 306.49L392.28 306.34L393.37 306.15L394.44 305.91L395.5 305.63L396.54 305.32L397.57 304.97L398.57 304.57L399.56 304.15L400.53 303.68L401.48 303.18L402.4 302.65L403.31 302.08L404.19 301.48L405.04 300.85L405.87 300.19L406.67 299.49L407.45 298.77L408.19 298.02L408.91 297.24L409.59 296.44L410.25 295.61L410.87 294.75L411.46 293.87L412.02 292.96L412.54 292.04L413.02 291.09L413.47 290.12L413.87 289.13L414.24 288.12L414.57 287.09L414.86 286.05L415.11 284.98L415.31 283.9L415.47 282.81L415.59 281.7L415.66 280.58L415.68 279.45L415.66 278.31L415.59 277.19L415.47 276.08L415.31 274.99L415.11 273.91L414.86 272.85L414.57 271.8L414.24 270.77L413.87 269.76L413.47 268.77L413.02 267.8L412.54 266.85L412.02 265.93L411.46 265.02L410.87 264.14L410.25 263.28L409.59 262.45L408.91 261.65L408.19 260.87L407.45 260.12L406.67 259.4L405.87 258.7L405.04 258.04L404.19 257.41L403.31 256.81L402.4 256.24L401.48 255.71L400.53 255.21L399.56 254.75L398.57 254.32L397.57 253.93L396.54 253.57L395.5 253.26L394.44 252.98L393.37 252.75L392.28 252.55L391.18 252.4L390.06 252.29L388.94 252.22L387.8 252.2L270.57 252.2L270.57 306.69Z" id="eWIXz8Wm4"></path></defs><g><g><g><use xlink:href="#c1DIrE6JoS" opacity="1" fill="#ffffff" fill-opacity="1"></use><g><use xlink:href="#c1DIrE6JoS" opacity="1" fill-opacity="0" stroke="#000000" stroke-width="1" stroke-opacity="0"></use></g></g><g><use xlink:href="#eWIXz8Wm4" opacity="1" fill="#ffffff" fill-opacity="1"></use><g><use xlink:href="#eWIXz8Wm4" opacity="1" fill-opacity="0" stroke="#000000" stroke-width="1" stroke-opacity="0"></use></g></g></g></g></svg>